<?xml version="1.0" standalone="no"?><!DOCTYPE svg PUBLIC "-//W3C//DTD SVG 1.1//EN" "http://www.w3.org/Graphics/SVG/1.1/DTD/svg11.dtd"><svg t="1703667662686" class="icon" viewBox="0 0 1024 1024" version="1.1" xmlns="http://www.w3.org/2000/svg" p-id="1590" xmlns:xlink="http://www.w3.org/1999/xlink" width="200" height="200"><path d="M726.4 852.3c-81.1 0-146.8-65.7-146.8-146.8s65.7-146.8 146.8-146.8 146.8 65.7 146.8 146.8-65.7 146.8-146.8 146.8zM825 658.6c-4.6-4.6-12-4.6-16.6 0L705.3 761.7 648.6 705c-4.6-4.6-12-4.6-16.6 0-4.6 4.6-4.6 12 0 16.6l66.4 66.4c4.6 4.6 12 4.6 16.6 0 1.6-1.6 2.5-3.7 3-5.8l107-107c4.6-4.5 4.6-12 0-16.6zM655 544.5c-1.6-0.3-3.3-0.5-5-0.5H297.7c-16.2 0-29.4 13.1-29.4 29.4v11.7c0 16.2 13.1 29.4 29.4 29.4h278.1c-9.3 15.3-16.2 32.1-20.5 49.9H297.7c-16.2 0-29.4 13.1-29.4 29.4v11.7c0 16.2 13.1 29.4 29.4 29.4h255.2c8.2 48.9 36.5 91.1 76.2 117.4H209.6c-32.4 0-58.7-26.3-58.7-58.7V265c0-32.4 26.3-58.7 58.7-58.7h58.7v41.1c0 32.4 26.3 58.7 58.7 58.7s58.7-26.3 58.7-58.7v-41.1h29.4v41.1c0 32.4 26.3 58.7 58.7 58.7s58.7-26.3 58.7-58.7v-41.1H562v41.1c0 32.4 26.3 58.7 58.7 58.7s58.7-26.3 58.7-58.7v-41.1h58.7c32.4 0 58.7 26.3 58.7 58.7v279c-21.6-9.4-45.4-14.8-70.5-14.8-25.3 0.1-49.4 5.6-71.3 15.3z m24.4-91.6c0-16.2-13.1-29.4-29.4-29.4H297.7c-16.2 0-29.4 13.1-29.4 29.4v11.7c0 16.2 13.1 29.4 29.4 29.4H650c16.2 0 29.4-13.1 29.4-29.4v-11.7z m-58.7-176.1c-16.2 0-29.4-13.1-29.4-29.4v-47c0-16.2 13.1-29.4 29.4-29.4s29.4 13.1 29.4 29.4v47c-0.1 16.2-13.2 29.4-29.4 29.4z m-146.8 0c-16.2 0-29.4-13.1-29.4-29.4v-47c0-16.2 13.1-29.4 29.4-29.4s29.4 13.1 29.4 29.4v47c-0.1 16.2-13.2 29.4-29.4 29.4z m-146.8 0c-16.2 0-29.4-13.1-29.4-29.4v-47c0-16.2 13.1-29.4 29.4-29.4 16.2 0 29.4 13.1 29.4 29.4v47c-0.1 16.2-13.2 29.4-29.4 29.4z" fill="" p-id="1591"></path></svg>